<svg width="173" height="118" viewBox="0 0 173 118" fill="none" xmlns="http://www.w3.org/2000/svg">
<path d="M118.179 55.7222C117.846 55.7222 117.514 55.7222 117.174 55.6763L117.341 53.8408C117.905 53.8899 118.473 53.8899 119.037 53.8408L119.21 55.6763C118.878 55.7222 118.525 55.7222 118.179 55.7222ZM115.158 55.3092C114.503 55.1256 113.866 54.8842 113.255 54.5881L114.087 52.9361C114.595 53.1833 115.125 53.3851 115.67 53.5392L115.158 55.3092ZM121.226 55.3092L120.707 53.5392C121.253 53.3829 121.783 53.1789 122.291 52.9295L123.129 54.5815C122.52 54.8882 121.883 55.1384 121.226 55.3289V55.3092ZM111.512 53.5327C110.966 53.1277 110.461 52.6734 110.001 52.1756L111.385 50.9367C111.769 51.3472 112.19 51.7224 112.643 52.0577L111.512 53.5327ZM124.866 53.5327L123.762 52.0708C124.213 51.7294 124.634 51.3499 125.019 50.9367L126.403 52.1822C125.934 52.6795 125.419 53.1337 124.866 53.5392V53.5327ZM108.764 50.5892C108.405 50.017 108.099 49.4135 107.852 48.7864L109.596 48.1309C109.801 48.651 110.055 49.1513 110.354 49.6255L108.764 50.5892ZM127.607 50.5892L126.017 49.619C126.314 49.1423 126.566 48.6398 126.769 48.1178L128.519 48.7733C128.272 49.4004 127.967 50.0039 127.607 50.5761V50.5892ZM107.287 46.8722C107.165 46.2103 107.102 45.539 107.1 44.8662H108.97C108.967 45.4291 109.018 45.991 109.123 46.5444L107.287 46.8722ZM129.078 46.8722L127.235 46.5379C127.339 45.9867 127.391 45.4269 127.388 44.8662L129.264 44.8269V44.8662C129.262 45.5257 129.202 46.1837 129.085 46.8329L129.078 46.8722ZM109.116 43.2208L107.273 42.8864C107.399 42.2163 107.584 41.5582 107.826 40.9198L109.576 41.5753C109.373 42.0951 109.221 42.633 109.123 43.1814L109.116 43.2208ZM127.222 43.1618C127.114 42.6133 126.956 42.0757 126.749 41.5557L128.492 40.9001C128.744 41.537 128.936 42.1953 129.065 42.8668L127.222 43.1618ZM110.327 40.1134L108.737 39.1432C109.097 38.5701 109.509 38.0303 109.968 37.5305L111.352 38.7761C110.974 39.178 110.633 39.6124 110.334 40.0741L110.327 40.1134ZM125.991 40.061C125.688 39.5938 125.343 39.1549 124.959 38.7499L126.337 37.5043C126.797 37.9995 127.212 38.5348 127.574 39.1039L125.991 40.061ZM112.603 37.642L111.472 36.1735C112.014 35.7657 112.593 35.408 113.202 35.105L114.054 36.7111C113.545 36.9627 113.061 37.2612 112.61 37.6027L112.603 37.642ZM123.695 37.642C123.247 37.287 122.766 36.9753 122.258 36.7111L123.096 35.0394C123.707 35.3369 124.289 35.6903 124.833 36.0949L123.695 37.642ZM115.624 36.1801L115.112 34.3314C115.764 34.1481 116.432 34.0231 117.108 33.9578L117.281 35.7933C116.722 35.8499 116.17 35.9552 115.631 36.108L115.624 36.1801ZM120.668 36.1801C120.121 36.0332 119.562 35.9345 118.997 35.8851L119.157 34.043C119.832 34.1052 120.5 34.2259 121.153 34.4035L120.668 36.1801Z" fill="#E2EAF2"/>
<path d="M78.6085 25.6322H116.276V59.1311C116.275 59.4591 116.209 59.7837 116.08 60.0864C115.952 60.3891 115.765 60.664 115.529 60.8953C115.293 61.1266 115.013 61.3099 114.705 61.4346C114.397 61.5593 114.067 61.6231 113.734 61.6222H81.1303C80.458 61.6222 79.8132 61.3591 79.3377 60.8907C78.8623 60.4223 78.5952 59.787 78.5952 59.1245V25.6322H78.6085Z" fill="#E2EAF2"/>
<path d="M116.269 26.2484L78.6019 26.2484V23.7245C78.6106 23.0667 78.8825 22.4388 79.3584 21.9773C79.8343 21.5157 80.4759 21.2579 81.1436 21.2596L113.747 21.2596C114.08 21.2596 114.41 21.3242 114.718 21.4498C115.025 21.5753 115.305 21.7593 115.54 21.9912C115.775 22.2231 115.962 22.4985 116.09 22.8015C116.217 23.1045 116.283 23.4293 116.283 23.7573V26.2484H116.269Z" fill="#A365C9"/>
<path d="M81.7359 24.6882C82.265 24.6882 82.694 24.2655 82.694 23.7442C82.694 23.2228 82.265 22.8002 81.7359 22.8002C81.2067 22.8002 80.7777 23.2228 80.7777 23.7442C80.7777 24.2655 81.2067 24.6882 81.7359 24.6882Z" fill="#FAFAFA"/>
<path d="M85.0428 24.6882C85.572 24.6882 86.001 24.2655 86.001 23.7442C86.001 23.2228 85.572 22.8002 85.0428 22.8002C84.5136 22.8002 84.0847 23.2228 84.0847 23.7442C84.0847 24.2655 84.5136 24.6882 85.0428 24.6882Z" fill="#FAFAFA"/>
<path d="M88.3498 24.6882C88.8789 24.6882 89.3079 24.2655 89.3079 23.7442C89.3079 23.2228 88.8789 22.8002 88.3498 22.8002C87.8206 22.8002 87.3916 23.2228 87.3916 23.7442C87.3916 24.2655 87.8206 24.6882 88.3498 24.6882Z" fill="#FAFAFA"/>
<path d="M112.61 29.8933H82.3014C81.6694 29.8933 81.157 30.3981 81.157 31.0209V38.8154C81.157 39.4382 81.6694 39.943 82.3014 39.943H112.61C113.242 39.943 113.754 39.4382 113.754 38.8154V31.0209C113.754 30.3981 113.242 29.8933 112.61 29.8933Z" fill="#FAFAFA"/>
<path d="M112.61 41.9752H82.3014C81.6694 41.9752 81.157 42.48 81.157 43.1028V50.8973C81.157 51.5201 81.6694 52.0249 82.3014 52.0249H112.61C113.242 52.0249 113.754 51.5201 113.754 50.8973V43.1028C113.754 42.48 113.242 41.9752 112.61 41.9752Z" fill="#FAFAFA"/>
<path d="M113.781 55.1847V61.7403H81.1769V55.1847C81.1787 54.8851 81.3008 54.5983 81.5164 54.387C81.7321 54.1757 82.0239 54.0571 82.3281 54.0571H112.63C112.781 54.0563 112.93 54.0848 113.07 54.1411C113.209 54.1974 113.336 54.2803 113.443 54.3851C113.55 54.4899 113.635 54.6145 113.693 54.7517C113.751 54.8889 113.781 55.0361 113.781 55.1847Z" fill="#FAFAFA"/>
<path d="M38.6056 96.7666V91.3451H59.2525V83.7997H79.1941V75.8937H93.3468V83.7997H113.814V91.3451H134.394V96.7666H38.6056Z" fill="#A365C9"/>
<path d="M49.7042 89.3784C49.4166 89.3211 49.1616 89.159 48.9901 88.9244C48.8186 88.6898 48.7433 88.4001 48.7793 88.1132L49.0987 84.2585C49.1919 83.1047 49.997 82.1607 50.8753 82.2919C51.7536 82.4295 52.2061 83.603 51.9266 84.7043L50.9818 88.5C50.9166 88.776 50.75 89.0185 50.5141 89.1807C50.2782 89.3429 49.9897 89.4133 49.7042 89.3784Z" fill="#EAA88E"/>
<path d="M54.8876 91.5811H47.5683V90.27C47.5683 90.0238 47.6176 89.7799 47.7132 89.5525C47.8088 89.325 47.949 89.1183 48.1257 88.9442C48.3024 88.7701 48.5122 88.632 48.7431 88.5378C48.974 88.4436 49.2214 88.3951 49.4713 88.3951H51.6272C52.4919 88.3951 53.3212 88.7335 53.9326 89.3359C54.5441 89.9383 54.8876 90.7554 54.8876 91.6073V91.5811Z" fill="#0A0D16"/>
<path d="M56.2583 55.4272C54.2022 59.5114 51.9 67.1289 51.1814 70.9967C51.1814 70.9967 49.977 75.343 49.1852 79.2698C48.7007 81.8018 48.438 84.3701 48.4001 86.9464H51.5407C51.5407 86.9464 54.0758 80.7579 55.706 77.4867C57.3362 74.2155 59.8846 67.5222 61.1489 64.6902C62.4131 61.8582 62.4796 55.6895 62.4796 55.6895L56.2583 55.4272Z" fill="#0A0D16"/>
<path d="M66.5385 81.597C66.2516 81.5384 65.9975 81.3759 65.8263 81.1416C65.6551 80.9074 65.5792 80.6185 65.6136 80.3318L65.933 76.4772C66.0328 75.3234 66.8312 74.3794 67.7095 74.5105C68.5879 74.6482 69.0403 75.8216 68.7608 76.9229L67.8227 80.6727C67.766 80.9577 67.6023 81.2112 67.3642 81.3826C67.1262 81.5539 66.8313 81.6305 66.5385 81.597Z" fill="#EAA88E"/>
<path d="M71.602 83.9112H64.2828V82.6C64.2828 82.1028 64.4833 81.6259 64.8402 81.2743C65.1971 80.9227 65.6811 80.7252 66.1858 80.7252H68.3616C68.7898 80.7252 69.2138 80.8082 69.6093 80.9697C70.0049 81.1311 70.3643 81.3677 70.6671 81.666C70.9698 81.9643 71.21 82.3184 71.3738 82.7081C71.5377 83.0978 71.622 83.5155 71.622 83.9374L71.602 83.9112Z" fill="#0A0D16"/>
<path d="M57.8286 58.8623C58.8533 62.2515 65.547 70.0067 65.547 70.0067C65.2938 71.439 65.1956 72.8938 65.2543 74.3465C65.3142 77.0867 65.547 79.7024 65.547 79.7024H68.2751C68.2751 79.7024 72.141 72.0324 71.5355 69.2922C70.93 66.5519 64.4691 56.7776 64.4691 56.7776L63.684 55.7222H59.2192L57.8286 58.8623Z" fill="#0A0D16"/>
<path d="M57.5025 39.3727C55.7725 40.1135 53.6633 42.3161 53.7231 48.2686C53.783 54.221 54.0625 57.9315 54.0625 57.9315C54.0625 57.9315 55.7858 58.7378 60.55 58.2068C65.3141 57.6758 65.547 57.0333 65.547 57.0333C64.9617 54.3556 64.5814 51.6383 64.4092 48.9045C64.3493 45.6726 61.2686 41.9818 60.2439 40.4937C60.2439 40.474 57.5957 40.9526 57.5025 39.3727Z" fill="#A365C9"/>
<path d="M64.4092 30.6537C64.529 33.394 64.6554 35.5966 63.99 37.2617C63.3247 38.9269 60.2439 38.3303 60.2439 38.3303V40.474C60.2439 40.474 57.802 41.0377 57.5025 39.3726C57.2031 37.7075 57.5025 37.2617 56.9237 34.8821C56.3448 32.5024 56.3182 29.9982 59.0329 28.7526C61.7477 27.5071 64.4691 29.2246 64.4092 30.6537Z" fill="#EAA88E"/>
<path d="M62.8988 27.2056C63.5642 28.2938 65.1345 27.9792 65.4406 29.1067C65.7467 30.2343 65.5005 31.7289 63.7439 32.1419C61.9872 32.5549 61.2087 32.6205 61.0823 33.394C60.9559 34.1676 60.9027 34.3446 60.1175 34.2856C60.1175 34.2856 59.8713 33.394 59.3324 33.394C59.1765 33.4003 59.0256 33.4497 58.8968 33.5364C58.7681 33.6232 58.6667 33.7439 58.6042 33.8847C58.5418 34.0256 58.5208 34.1809 58.5437 34.3329C58.5665 34.4849 58.6323 34.6275 58.7335 34.7445C59.339 35.3345 59.8181 34.8035 60.1242 35.3345C60.4302 35.8655 59.5187 38.3107 56.7972 38.3107C54.0758 38.3107 53.1177 36.1277 53.2308 33.571C53.3439 31.0144 52.8715 29.5853 54.9807 28.0972C57.09 26.609 57.6423 27.5596 59.0263 26.609C59.6399 26.2438 60.3645 26.1035 61.0728 26.2126C61.7811 26.3217 62.4276 26.6733 62.8988 27.2056Z" fill="#0A0D16"/>
<path d="M53.2308 30.2801C54.6382 30.2801 55.7792 29.156 55.7792 27.7693C55.7792 26.3827 54.6382 25.2585 53.2308 25.2585C51.8233 25.2585 50.6823 26.3827 50.6823 27.7693C50.6823 29.156 51.8233 30.2801 53.2308 30.2801Z" fill="#0A0D16"/>
<path d="M72.014 45.2658L49.1305 50.9832C48.6283 51.1087 48.3244 51.6116 48.4518 52.1064L50.3589 59.5157C50.4862 60.0105 50.9967 60.3099 51.4989 60.1844L74.3824 54.467C74.8846 54.3415 75.1885 53.8386 75.0612 53.3438L73.154 45.9346C73.0267 45.4397 72.5163 45.1403 72.014 45.2658Z" fill="#E2EAF2"/>
<path d="M55.6014 50.9778L51.1576 52.0881C50.6554 52.2136 50.3515 52.7165 50.4788 53.2113L51.6058 57.5895C51.7331 58.0843 52.2435 58.3837 52.7458 58.2582L57.1896 57.1479C57.6919 57.0224 57.9958 56.5196 57.8684 56.0247L56.7415 51.6466C56.6141 51.1517 56.1037 50.8523 55.6014 50.9778Z" fill="#A365C9"/>
<path d="M66.7048 50.7269L59.0662 52.6345C58.8904 52.6659 58.7092 52.6304 58.5589 52.5352C58.4087 52.44 58.3007 52.2922 58.2568 52.1216C58.2129 51.9511 58.2363 51.7704 58.3223 51.6162C58.4083 51.462 58.5505 51.3456 58.7202 51.2907L66.3588 49.383C66.5184 49.3784 66.6749 49.4273 66.8027 49.5217C66.9304 49.6161 67.0218 49.7505 67.062 49.9027C67.1022 50.055 67.0888 50.2162 67.0239 50.3599C66.959 50.5037 66.8465 50.6215 66.7048 50.6941V50.7269Z" fill="#FAFAFA"/>
<path d="M73.006 52.1101L59.7848 55.3879C59.7254 55.4029 59.6635 55.4063 59.6028 55.3978C59.542 55.3894 59.4836 55.3692 59.4307 55.3384C59.3779 55.3077 59.3318 55.267 59.2949 55.2187C59.258 55.1704 59.2312 55.1154 59.2159 55.0568C59.2006 54.9983 59.1972 54.9373 59.2058 54.8775C59.2144 54.8176 59.2349 54.7601 59.2661 54.708C59.2973 54.656 59.3386 54.6105 59.3876 54.5742C59.4367 54.5378 59.4925 54.5114 59.5519 54.4963L72.7797 51.2185C72.8951 51.2032 73.0121 51.2303 73.1084 51.2948C73.2047 51.3592 73.2734 51.4564 73.3015 51.5677C73.3295 51.679 73.3148 51.7966 73.2603 51.8979C73.2058 51.9992 73.1152 52.0771 73.006 52.1167V52.1101Z" fill="#FAFAFA"/>
<path d="M55.4133 53.5458L54.1224 55.6894L52.7118 54.8634" stroke="#FAFAFA" stroke-width="0.96" stroke-linecap="round" stroke-linejoin="round"/>
<path d="M58.9065 41.4835C57.2696 42.067 57.1033 44.4008 57.7088 46.2429C58.2634 48.1197 58.9687 49.9501 59.8181 51.7168C60.5433 53.0279 62.6593 52.7919 62.4796 51.2448C62.2999 49.6976 61.6944 45.1743 61.0889 43.5682C60.4834 41.9621 59.6783 41.2082 58.9065 41.4835Z" fill="#EAA88E"/>
<path d="M61.1489 51.0022C60.4236 51.5201 59.878 52.2544 61.1489 53.4475C62.6039 54.7289 64.229 55.8096 65.9796 56.6597C66.9444 57.0137 68.0356 56.5417 67.1307 55.4666C66.2257 54.3915 63.9302 52.7919 63.2049 52.0184C62.4796 51.2448 61.5681 50.7072 61.1489 51.0022Z" fill="#EAA88E"/>
<path d="M66.6449 55.8861C67.49 55.2895 68.3683 55.5845 69.3065 55.8861C70.2447 56.1876 70.0317 56.3319 69.6392 56.4171C69.2682 56.4664 68.8923 56.4664 68.5213 56.4171C68.5213 56.4171 68.7609 56.6859 69.8521 56.7776C70.9433 56.8694 70.0317 57.5774 69.1867 57.6692C68.4087 57.7131 67.6362 57.5159 66.9776 57.1054C66.5253 56.867 66.0561 56.661 65.5737 56.4892L66.6449 55.8861Z" fill="#EAA88E"/>
<path d="M127.914 49.7501C130.662 49.7501 132.891 47.5547 132.891 44.8466C132.891 42.1384 130.662 39.943 127.914 39.943C125.165 39.943 122.936 42.1384 122.936 44.8466C122.936 47.5547 125.165 49.7501 127.914 49.7501Z" fill="#A365C9"/>
<path d="M130.914 44.8466C130.912 44.9462 130.88 45.043 130.822 45.1247C130.764 45.2063 130.683 45.2692 130.588 45.3055C130.085 45.4936 129.628 45.7849 129.247 46.1601C128.866 46.5353 128.57 46.9858 128.379 47.4819C128.343 47.5748 128.279 47.6548 128.196 47.712C128.113 47.7692 128.015 47.8009 127.914 47.8031C127.812 47.8018 127.714 47.7704 127.631 47.7131C127.547 47.6558 127.484 47.5753 127.448 47.4819C127.257 46.9858 126.961 46.5353 126.58 46.1601C126.2 45.7849 125.742 45.4936 125.239 45.3055C125.144 45.2692 125.063 45.2063 125.005 45.1247C124.947 45.043 124.915 44.9462 124.913 44.8466C124.915 44.7469 124.947 44.6501 125.005 44.5685C125.063 44.4868 125.144 44.4239 125.239 44.3877C125.742 44.1995 126.2 43.9082 126.58 43.5331C126.961 43.1579 127.257 42.7073 127.448 42.2112C127.484 42.1179 127.547 42.0373 127.631 41.98C127.714 41.9228 127.812 41.8914 127.914 41.89C128.015 41.8923 128.113 41.924 128.196 41.9811C128.279 42.0383 128.343 42.1184 128.379 42.2112C128.57 42.7073 128.866 43.1579 129.247 43.5331C129.628 43.9082 130.085 44.1995 130.588 44.3877C130.683 44.4239 130.764 44.4868 130.822 44.5685C130.88 44.6501 130.912 44.7469 130.914 44.8466Z" fill="#FAFAFA"/>
</svg>
