<svg width="144" height="32" viewBox="0 0 144 32" fill="none" xmlns="http://www.w3.org/2000/svg">
<path d="M10.0669 29C22.1394 29 28.7444 18.9956 28.7444 10.3225C28.7444 10.0412 28.7381 9.75373 28.7256 9.47248C30.0105 8.54328 31.1193 7.39234 32 6.07373C30.8034 6.60613 29.5329 6.95384 28.2319 7.10498C29.6017 6.28388 30.6274 4.99396 31.1187 3.47436C29.8301 4.23808 28.4208 4.77682 26.9513 5.06748C25.9611 4.01541 24.652 3.31882 23.2262 3.0854C21.8005 2.85198 20.3376 3.09473 19.0637 3.77613C17.7897 4.45752 16.7757 5.53961 16.1785 6.85508C15.5812 8.17056 15.4339 9.64615 15.7594 11.0537C13.15 10.9228 10.5972 10.2449 8.26664 9.06413C5.93604 7.88332 3.87959 6.22592 2.23062 4.19936C1.39253 5.64432 1.13608 7.35419 1.51337 8.98145C1.89067 10.6087 2.87342 12.0313 4.26188 12.96C3.2195 12.9269 2.19997 12.6462 1.2875 12.1412V12.2225C1.28657 13.7389 1.8108 15.2088 2.77108 16.3824C3.73136 17.5559 5.06843 18.3607 6.555 18.66C5.58941 18.9242 4.57598 18.9627 3.59313 18.7725C4.01261 20.0766 4.82876 21.2172 5.92769 22.0351C7.02662 22.853 8.35349 23.3075 9.72313 23.335C7.3979 25.1615 4.52557 26.1522 1.56875 26.1475C1.04438 26.1467 0.520532 26.1145 0 26.0512C3.00381 27.9783 6.49804 29.0018 10.0669 29Z" fill="#E14614"/>
<g clip-path="url(#clip0_17_790)">
<path d="M85.6313 0H58.3625C57.0562 0 56 1.03125 56 2.30625V29.6875C56 30.9625 57.0562 32 58.3625 32H85.6313C86.9375 32 88 30.9625 88 29.6938V2.30625C88 1.03125 86.9375 0 85.6313 0ZM65.4937 27.2687H60.7438V11.9937H65.4937V27.2687ZM63.1188 9.9125C61.5938 9.9125 60.3625 8.68125 60.3625 7.1625C60.3625 5.64375 61.5938 4.4125 63.1188 4.4125C64.6375 4.4125 65.8687 5.64375 65.8687 7.1625C65.8687 8.675 64.6375 9.9125 63.1188 9.9125ZM83.2687 27.2687H78.525V19.8438C78.525 18.075 78.4937 15.7937 76.0562 15.7937C73.5875 15.7937 73.2125 17.725 73.2125 19.7188V27.2687H68.475V11.9937H73.025V14.0813H73.0875C73.7188 12.8813 75.2688 11.6125 77.575 11.6125C82.3813 11.6125 83.2687 14.775 83.2687 18.8875V27.2687Z" fill="#E14614"/>
</g>
<g clip-path="url(#clip1_17_790)">
<path d="M144 16C144 7.16344 136.837 0 128 0C119.163 0 112 7.16344 112 16C112 23.9859 117.851 30.6053 125.5 31.8056V20.625H121.438V16H125.5V12.475C125.5 8.465 127.889 6.25 131.543 6.25C133.293 6.25 135.125 6.5625 135.125 6.5625V10.5H133.108C131.12 10.5 130.5 11.7334 130.5 13V16H134.938L134.228 20.625H130.5V31.8056C138.149 30.6053 144 23.9859 144 16Z" fill="#E14614"/>
</g>
<defs>
<clipPath id="clip0_17_790">
<rect width="32" height="32" fill="white" transform="translate(56)"/>
</clipPath>
<clipPath id="clip1_17_790">
<rect width="32" height="32" fill="white" transform="translate(112)"/>
</clipPath>
</defs>
</svg>
